<?xml version="1.0" standalone="no"?>
<!DOCTYPE svg PUBLIC "-//W3C//DTD SVG 20010904//EN"
 "http://www.w3.org/TR/2001/REC-SVG-20010904/DTD/svg10.dtd">
<svg version="1.0" xmlns="http://www.w3.org/2000/svg"
 width="300.000000pt" height="263.000000pt" viewBox="0 0 300.000000 263.000000"
 preserveAspectRatio="xMidYMid meet">

<g transform="translate(0.000000,263.000000) scale(0.100000,-0.100000)"
 stroke="none">
<path d="M1400 2300 c-331 -42 -611 -233 -765 -523 -75 -141 -127 -342 -106
-412 11 -40 18 -20 24 75 7 91 53 237 107 338 236 437 765 625 1220 435 301
-126 515 -383 580 -697 6 -31 16 -56 21 -56 14 0 11 20 -16 115 -53 181 -143
333 -269 453 -92 87 -145 123 -261 178 -165 79 -372 115 -535 94z"/>
<path d="M1392 2180 c-298 -42 -561 -243 -678 -520 -49 -114 -50 -122 -23
-118 15 2 25 12 29 27 4 19 7 21 17 10 6 -8 16 -31 21 -53 16 -57 38 -76 86
-75 39 1 39 1 12 9 -32 10 -66 38 -66 55 0 6 -11 34 -26 62 l-25 51 35 70 c41
82 135 201 201 255 68 57 171 117 200 117 19 0 25 -5 25 -21 0 -12 17 -37 37
-55 42 -39 40 -55 -12 -84 -29 -16 -35 -24 -53 -72 -6 -15 -35 -45 -65 -67
-30 -22 -66 -60 -81 -85 -18 -31 -41 -53 -69 -67 -81 -41 -100 -75 -47 -85 26
-6 30 -11 30 -40 0 -25 7 -38 29 -53 36 -26 91 -28 91 -5 0 12 -6 15 -24 10
-32 -8 -79 28 -71 55 8 24 -11 49 -36 49 -33 0 -20 19 28 42 31 15 63 43 93
81 25 31 66 73 92 92 34 25 51 47 59 75 7 22 20 42 30 45 34 11 69 46 69 70 0
16 -12 33 -35 51 -19 14 -35 35 -35 45 0 10 -4 21 -10 24 -22 14 -6 24 73 46
68 20 105 24 217 23 134 0 208 -12 291 -47 l34 -15 -26 -10 c-43 -17 -98 -72
-124 -121 -13 -25 -42 -63 -64 -84 -47 -43 -55 -86 -20 -111 19 -13 25 -12 62
5 23 10 54 19 68 19 14 0 47 14 73 31 38 26 54 30 83 26 50 -9 52 -15 15 -45
-43 -36 -41 -59 4 -78 47 -20 35 -30 -42 -37 -45 -5 -66 -3 -80 8 -35 26 -86
18 -152 -24 -59 -38 -122 -114 -108 -128 4 -4 28 16 54 44 78 87 150 114 205
78 29 -18 156 -3 174 21 15 21 7 42 -20 50 -47 14 -49 25 -10 59 46 40 40 60
-23 73 -51 11 -59 9 -144 -39 -19 -10 -45 -19 -58 -19 -12 0 -34 -7 -47 -16
-20 -13 -28 -14 -40 -4 -8 7 -15 16 -15 21 0 5 25 36 55 69 30 33 55 64 55 70
0 20 80 97 119 115 l40 18 76 -48 c145 -90 264 -227 326 -374 20 -49 33 -67
49 -69 19 -3 21 0 15 20 -12 37 -75 159 -108 208 -43 65 -153 176 -221 222
-78 54 -190 105 -281 128 -89 23 -246 32 -333 20z"/>
<path d="M1395 2116 c-70 -17 -77 -22 -63 -46 10 -15 10 -22 0 -32 -19 -19
-14 -63 11 -86 31 -29 43 -28 61 6 8 15 37 49 65 77 86 84 59 114 -74 81z m99
-14 c3 -4 -18 -27 -45 -51 -28 -24 -54 -54 -59 -67 -12 -29 -26 -31 -40 -3 -9
16 -8 26 5 45 9 14 14 32 11 39 -7 18 3 24 56 34 59 12 66 12 72 3z"/>
<path d="M1780 2004 c-17 -15 -40 -45 -51 -68 -11 -22 -37 -56 -57 -75 l-37
-34 35 25 c19 14 49 49 66 79 17 29 44 63 60 76 16 13 26 23 22 23 -3 0 -21
-12 -38 -26z"/>
<path d="M1154 1845 c-4 -9 -26 -27 -51 -42 -24 -14 -62 -50 -84 -80 -22 -29
-59 -67 -81 -83 -49 -36 -43 -40 10 -6 20 13 52 46 71 73 19 28 56 65 83 84
43 29 80 69 63 69 -3 0 -8 -7 -11 -15z"/>
<path d="M2085 1671 c11 -4 33 -27 50 -50 27 -39 95 -82 95 -61 0 4 -14 11
-31 15 -20 5 -37 18 -48 38 -23 43 -48 67 -68 66 -15 0 -15 -2 2 -8z"/>
<path d="M1988 1649 c-35 -20 -39 -44 -18 -113 16 -51 25 -66 40 -66 18 0 18
3 -5 53 -31 66 -31 83 0 103 34 22 68 7 96 -41 21 -35 64 -65 92 -65 8 0 22
-10 30 -22 l16 -23 0 22 c1 24 -33 53 -60 53 -10 0 -28 14 -41 31 -50 66 -66
79 -100 79 -18 0 -41 -5 -50 -11z"/>
<path d="M1657 1620 c-26 -16 -47 -32 -47 -35 0 -2 21 9 48 26 37 24 54 29 82
25 24 -4 30 -3 20 4 -26 17 -54 11 -103 -20z"/>
<path d="M1642 1527 c-91 -34 -146 -115 -146 -217 0 -144 113 -242 262 -227
179 19 267 220 161 367 -55 76 -181 111 -277 77z m176 -48 c82 -40 122 -144
88 -232 -75 -196 -365 -148 -366 61 0 46 21 105 48 136 49 54 155 71 230 35z"/>
<path d="M1610 1333 c0 -9 18 -13 64 -13 73 0 76 -3 76 -82 0 -67 24 -60 28 9
4 75 -16 94 -101 97 -50 2 -67 -1 -67 -11z"/>
<path d="M2290 1335 c0 -189 1 -195 20 -195 17 0 19 4 14 27 l-7 28 32 -28
c45 -38 126 -39 169 -2 40 33 56 76 49 131 -12 107 -144 158 -221 85 l-21 -20
4 85 c3 80 2 84 -18 84 -21 0 -21 -3 -21 -195z m211 16 c24 -24 29 -38 29 -76
0 -64 -39 -105 -100 -105 -61 0 -100 41 -100 105 0 64 39 105 100 105 33 0 48
-6 71 -29z"/>
<path d="M1115 1315 c0 -179 1 -195 18 -195 12 0 17 8 17 26 l0 26 31 -26 c66
-56 179 -23 208 60 49 139 -111 251 -216 152 l-23 -21 0 86 c0 76 -2 87 -17
87 -17 0 -18 -16 -18 -195z m208 25 c71 -56 30 -190 -58 -190 -77 0 -126 58
-110 132 16 72 109 104 168 58z"/>
<path d="M1230 1302 c0 -12 69 -46 78 -38 10 10 -36 46 -59 46 -10 0 -19 -3
-19 -8z"/>
<path d="M142 1478 c2 -7 29 -91 61 -185 52 -153 61 -173 80 -173 19 0 28 17
66 133 25 72 49 143 54 157 8 22 16 5 61 -130 48 -140 55 -155 77 -158 23 -2
27 8 86 184 59 176 61 185 41 182 -19 -3 -29 -25 -73 -160 -27 -87 -52 -158
-55 -158 -3 0 -28 71 -55 158 -69 214 -73 214 -144 2 -30 -88 -56 -159 -57
-157 -2 1 -26 73 -54 160 -44 134 -54 157 -71 157 -11 0 -19 -6 -17 -12z"/>
<path d="M2050 1280 c0 -133 1 -140 20 -140 19 0 20 7 20 95 0 106 12 130 70
142 21 4 30 11 30 24 0 11 -4 19 -9 19 -23 0 -67 -23 -83 -43 l-18 -22 0 33
c0 22 -5 32 -15 32 -13 0 -15 -22 -15 -140z"/>
<path d="M2720 1410 c-37 -9 -70 -41 -70 -70 0 -31 38 -67 77 -74 77 -14 103
-26 103 -50 0 -12 -5 -27 -12 -34 -16 -16 -97 -15 -130 2 -23 12 -29 12 -38 1
-18 -22 38 -45 108 -45 71 0 112 25 112 69 0 43 -21 62 -90 78 -72 16 -90 27
-90 54 0 36 47 45 145 27 12 -2 21 3 23 14 2 12 -9 19 -48 27 -28 6 -52 11
-53 10 -1 -1 -18 -5 -37 -9z"/>
<path d="M813 1381 c-96 -44 -104 -191 -13 -245 51 -30 190 -12 190 25 0 18
-29 21 -52 5 -47 -33 -133 -12 -156 39 -7 14 -12 29 -12 33 0 4 53 7 118 7
l117 0 -3 29 c-11 97 -101 148 -189 107z m128 -50 c52 -53 42 -61 -71 -61
-113 0 -123 8 -71 61 23 23 38 29 71 29 33 0 48 -6 71 -29z"/>
<path d="M663 1249 c-19 -73 14 -201 87 -337 122 -226 339 -385 598 -439 116
-23 300 -14 412 22 253 80 444 250 547 485 18 41 33 83 33 93 0 30 -30 19 -42
-15 -27 -77 -101 -208 -150 -264 -110 -126 -225 -204 -377 -255 -85 -29 -111
-33 -231 -37 -114 -3 -148 -1 -220 17 -245 61 -442 219 -558 448 -29 55 -72
204 -81 272 l-6 55 -12 -45z"/>
<path d="M1016 1109 c-4 -8 5 -41 19 -73 29 -65 48 -182 39 -232 -12 -65 56
-164 112 -164 25 0 33 26 15 46 -5 5 -11 28 -15 51 -6 41 -5 43 35 68 35 23
40 29 34 54 -4 18 -1 32 9 40 7 6 17 27 20 47 5 26 17 41 47 60 37 23 78 88
65 102 -9 8 -34 -17 -40 -42 -3 -12 -21 -31 -40 -41 -33 -18 -56 -51 -56 -79
0 -7 -9 -25 -21 -40 -13 -16 -18 -33 -14 -45 5 -15 -1 -24 -24 -35 -16 -9 -32
-24 -35 -33 -7 -25 -2 -95 8 -111 4 -7 6 -15 5 -17 -8 -7 -45 32 -67 69 -20
33 -21 43 -11 73 6 18 8 42 4 51 -4 9 -11 44 -15 77 -9 70 -64 199 -74 174z"/>
<path d="M741 1094 c-1 -23 70 -174 99 -212 31 -39 23 -15 -16 48 -20 32 -47
87 -60 122 -12 35 -23 54 -23 42z"/>
<path d="M1982 1060 c-29 -27 -32 -35 -30 -79 2 -38 -3 -57 -25 -89 -30 -45
-57 -65 -75 -53 -17 10 -63 147 -56 165 4 11 0 16 -10 16 -22 0 -21 -33 3
-110 22 -71 45 -100 76 -100 56 0 122 101 111 168 -5 34 -2 40 29 65 19 15 35
32 35 37 0 18 -25 9 -58 -20z"/>
<path d="M2445 1068 c-2 -7 -9 -31 -16 -53 -18 -61 -86 -193 -134 -260 -52
-73 -170 -187 -248 -238 -76 -51 -185 -101 -278 -128 -102 -29 -341 -38 -448
-15 -41 9 -76 15 -77 13 -2 -1 1 -8 5 -15 14 -24 176 -45 301 -39 303 13 578
159 758 402 39 53 131 231 145 282 3 10 8 28 12 41 7 23 -12 33 -20 10z"/>
<path d="M1283 1042 c-18 -15 -35 -40 -38 -57 -5 -29 -5 -29 5 -5 6 14 27 40
48 57 20 18 33 33 27 33 -5 0 -24 -13 -42 -28z"/>
<path d="M558 1054 c-14 -14 89 -246 139 -311 13 -18 20 -33 16 -33 -4 -1 9
-10 30 -21 22 -11 41 -19 43 -17 2 3 -7 20 -21 38 -14 19 -25 27 -25 19 -1
-38 -97 135 -157 284 -11 26 -22 44 -25 41z"/>
<path d="M1821 999 c0 -19 5 -43 10 -54 6 -13 7 -4 3 30 -8 60 -14 72 -13 24z"/>
<path d="M2225 990 c-11 -36 -70 -127 -123 -189 -60 -70 -146 -134 -250 -184
-45 -22 -80 -42 -78 -45 9 -9 171 77 233 123 98 73 244 269 230 308 -2 7 -7 1
-12 -13z"/>
</g>
</svg>
